<?xml version="1.0" encoding="utf-8"?>
<!-- Generator: Adobe Illustrator 27.5.0, SVG Export Plug-In . SVG Version: 6.00 Build 0)  -->
<svg version="1.1" id="Calque_1" xmlns="http://www.w3.org/2000/svg" xmlns:xlink="http://www.w3.org/1999/xlink" x="0px" y="0px"
	 viewBox="0 0 283 105" style="enable-background:new 0 0 283 105;" xml:space="preserve">
<style type="text/css">
	.st0{fill:#1D1D1F;}
	.st1{fill:url(#SVGID_1_);}
	.st2{fill:url(#SVGID_00000085953514482741585860000004162525175100120485_);}
	.st3{fill:url(#SVGID_00000154390420430575103590000003213162234593360557_);}
	.st4{fill:url(#SVGID_00000062187296084416412680000018274807817584343947_);}
	.st5{fill:url(#SVGID_00000147937712650503209720000011455301409002842759_);}
	.st6{fill:url(#SVGID_00000150822849824446967090000014025748646015085241_);}
	.st7{fill:url(#SVGID_00000017504337102278769500000008168351033175657398_);}
	.st8{fill:url(#SVGID_00000116203250423366661380000014916637944803763117_);}
	.st9{fill:#FFFFFF;}
	.st10{font-family:'ArialMT';}
	.st11{font-size:39.8105px;}
	.st12{letter-spacing:1.1;}
</style>
<g id="BACKGROUND">
	<rect x="-111" y="-200" class="st0" width="500" height="500"/>
</g>
<g id="OBJECTS">
	<g>
		
			<linearGradient id="SVGID_1_" gradientUnits="userSpaceOnUse" x1="15.3884" y1="372.9576" x2="183.7183" y2="372.9576" gradientTransform="matrix(0.9998 1.820000e-02 -1.820000e-02 0.9998 0.3044 -343.0848)">
			<stop  offset="0" style="stop-color:#5CB8FF"/>
			<stop  offset="1" style="stop-color:#2F2569"/>
		</linearGradient>
		<path class="st1" d="M177.5,16.6c-2.5,14-21.4,20.3-45.8,23.1c-47.3,5.4-115.1-2.4-123.1,7C16.7,35.6,45.4,33.4,77,32.5h0.1
			C119.7,31.1,167.6,32.1,177.5,16.6z"/>
		
			<linearGradient id="SVGID_00000103243261781388188110000010671016171389493377_" gradientUnits="userSpaceOnUse" x1="155.9089" y1="365.6699" x2="268.9996" y2="386.9966" gradientTransform="matrix(0.9998 1.820000e-02 -1.820000e-02 0.9998 0.3044 -343.0848)">
			<stop  offset="0" style="stop-color:#5CB8FF"/>
			<stop  offset="1" style="stop-color:#2F2569"/>
		</linearGradient>
		<path style="fill:url(#SVGID_00000103243261781388188110000010671016171389493377_);" d="M271,30.2c-41.2,10.5-77-21.2-138.8-16
			c-15.5,1.3-65,18.5-65,18.5C79.4,25.3,122,11.1,132,9.9c9-1.1,43.8-6.4,85.3,5.8l0,0c3.6,1.1,7.2,2.2,10.9,3.6
			C254.7,28.9,271,30.2,271,30.2z"/>
		
			<linearGradient id="SVGID_00000038409010249103372510000002244323384047185820_" gradientUnits="userSpaceOnUse" x1="202.7866" y1="377.562" x2="275.0499" y2="372.2139" gradientTransform="matrix(0.9998 1.820000e-02 -1.820000e-02 0.9998 0.3044 -343.0848)">
			<stop  offset="0" style="stop-color:#5CB8FF"/>
			<stop  offset="1" style="stop-color:#2F2569"/>
		</linearGradient>
		<path style="fill:url(#SVGID_00000038409010249103372510000002244323384047185820_);" d="M271,30.2c-16.1,18.2-55.1,10.9-88,9.6
			c-10.2-0.4-19.9-0.2-28.1,1.5c29.6-13.7,61.7-9.5,85.3-7.7l0,0C254.2,34.7,265.2,35,271,30.2z"/>
		
			<linearGradient id="SVGID_00000140732928120509837350000011435640885134197941_" gradientUnits="userSpaceOnUse" x1="27.3088" y1="389.4135" x2="28.2332" y2="396.8082" gradientTransform="matrix(0.9998 1.820000e-02 -1.820000e-02 0.9998 0.3044 -343.0848)">
			<stop  offset="0" style="stop-color:#FFFFFF"/>
			<stop  offset="1" style="stop-color:#686869"/>
		</linearGradient>
		<path style="fill:url(#SVGID_00000140732928120509837350000011435640885134197941_);" d="M35.6,46.2c-2.6,7.3-11.9,7.3-19.4,7.1
			c-4.6-0.1-8.6-0.2-10,1.2c1.8-7,12.8-8.8,20.9-8.9C31.1,45.6,34.4,45.9,35.6,46.2z"/>
		
			<linearGradient id="SVGID_00000118377828255696066430000014871445681444323773_" gradientUnits="userSpaceOnUse" x1="83.6191" y1="368.3995" x2="183.7183" y2="368.3995" gradientTransform="matrix(0.9998 1.820000e-02 -1.820000e-02 0.9998 0.3044 -343.0848)">
			<stop  offset="0" style="stop-color:#5CB8FF"/>
			<stop  offset="1" style="stop-color:#2F2569"/>
		</linearGradient>
		<path style="fill:url(#SVGID_00000118377828255696066430000014871445681444323773_);" d="M177.5,16.6c-2.5,14-21.4,20.3-45.8,23.1
			c-19.2,0.9-26.5-7.9-54.6-7.3C119.7,31.1,167.6,32.1,177.5,16.6z"/>
		
			<linearGradient id="SVGID_00000114032472423945659260000015438966538579602865_" gradientUnits="userSpaceOnUse" x1="73.6259" y1="361.1976" x2="223.3967" y2="361.1976" gradientTransform="matrix(0.9998 1.820000e-02 -1.820000e-02 0.9998 0.3044 -343.0848)">
			<stop  offset="0" style="stop-color:#5CB8FF"/>
			<stop  offset="1" style="stop-color:#2F2569"/>
		</linearGradient>
		<path style="fill:url(#SVGID_00000114032472423945659260000015438966538579602865_);" d="M217.2,15.7c-26.2-4.1-48.9-7.7-85.1-1.5
			c-15.5,1.3-65,18.5-65,18.5c12.2-7.4,54.8-21.6,64.8-22.8C140.9,8.9,175.8,3.6,217.2,15.7z"/>
		
			<linearGradient id="SVGID_00000111162382948655591640000005356564631464950691_" gradientUnits="userSpaceOnUse" x1="195.9655" y1="375.3019" x2="242.5321" y2="384.0836" gradientTransform="matrix(0.9998 1.820000e-02 -1.820000e-02 0.9998 0.3044 -343.0848)">
			<stop  offset="0" style="stop-color:#5CB8FF"/>
			<stop  offset="1" style="stop-color:#2F2569"/>
		</linearGradient>
		<path style="fill:url(#SVGID_00000111162382948655591640000005356564631464950691_);" d="M240.3,33.6c-19.6-0.4-25.4,6.8-57.3,6.2
			l0,0c-10.2-0.4-19.9-0.2-28.1,1.5C184.6,27.6,216.6,31.8,240.3,33.6z"/>
		
			<linearGradient id="SVGID_00000050649783329830964050000008599165916238284672_" gradientUnits="userSpaceOnUse" x1="238.4463" y1="383.8217" x2="263.1974" y2="383.8217" gradientTransform="matrix(0.9998 -2.160000e-02 2.160000e-02 0.9998 -0.2541 -336.043)">
			<stop  offset="0" style="stop-color:#FF8778"/>
			<stop  offset="1" style="stop-color:#9C122B"/>
		</linearGradient>
		<path style="fill:url(#SVGID_00000050649783329830964050000008599165916238284672_);" d="M246.5,45.6c16.9-2.1,24.1-9.2,24.1-9.2
			C272.7,44.9,269.5,51.7,246.5,45.6z"/>
	</g>
</g>
<g id="TEXTS">
	<g>
		<g>
			<text transform="matrix(0.8716 0 0 1 16.2107 89.4149)" class="st9 st10 st11 st12">Garage Parrot</text>
		</g>
	</g>
</g>
</svg>
